# File created by Blade
# Date/Time:  Wed Jan 21 14:43:55 2015
# Frame Rate: 120.000 fps
#------------------------------------------------------
:FULLY-SPECIFIED
:DEGREES
1764
root 19.603567 35.506736 -20.233098 -172.118564 -0.084522 181.955805
Spine -19.604698 0.625322 0.093980
Head 10.019948 -0.687172 2.786265
LeftShoulder -13.444245 -33.200603 19.918574
LeftArm -1.177420 -1.249157 -7.100872
LeftForeArm 10.514001 -0.000000 -1.858022
LeftHand -4.827839 -0.000000 -2.753953
LeftHandThumb1 -26.253704 0.000000 33.147579
RightShoulder -12.515676 -1.029622 -8.132084
RightArm 0.159698 45.451302 12.934452
RightForeArm -34.055337 -0.000000 6.673739
RightHand -2.764054 -0.000000 5.709493
RightHandThumb1 -24.326973 -0.000000 -32.862282
LeftUpLeg -1.179200 12.236165 3.411359
LeftLeg -5.982756 -0.000000 0.000000
LeftFoot -19.236948 28.233788 -11.778614
LeftToeBase 27.763323 -0.000000 -0.000000
RightUpLeg -2.587638 -8.968440 0.337033
RightLeg -2.015511 -0.000000 0.000000
RightFoot -20.083962 -21.411079 16.038899
RightToeBase 25.558338 -0.000000 -0.000000
1765
root 19.598800 35.507479 -20.225574 -172.135188 -0.088559 181.950615
Spine -19.548875 0.576077 0.130703
Head 9.937708 -0.625633 2.751584
LeftShoulder -13.392915 -33.262634 19.896697
LeftArm -1.153732 -1.083574 -7.120194
LeftForeArm 10.438048 -0.000000 -1.881685
LeftHand -4.753365 -0.000000 -2.926441
LeftHandThumb1 -26.253704 0.000000 33.147579
RightShoulder -12.511644 -1.201167 -8.152611
RightArm 0.511166 45.578292 13.131247
RightForeArm -34.097137 -0.000000 6.615859
RightHand -2.750320 -0.000000 5.711683
RightHandThumb1 -24.326973 -0.000000 -32.862282
LeftUpLeg -1.176675 12.205612 3.402089
LeftLeg -5.977475 -0.000000 0.000000
LeftFoot -19.240996 28.246335 -11.779943
LeftToeBase 27.765840 -0.000000 -0.000000
RightUpLeg -2.583428 -9.016116 0.327115
RightLeg -2.016347 -0.000000 0.000000
RightFoot -20.055942 -21.365602 16.052281
RightToeBase 25.540091 -0.000000 -0.000000
1766
root 19.592345 35.508316 -20.216715 -172.145621 -0.082268 181.943517
Spine -19.502865 0.537992 0.167648
Head 9.881052 -0.549388 2.719926
LeftShoulder -13.361470 -33.177155 19.880477
LeftArm -1.093760 -1.216173 -7.197497
LeftForeArm 10.659253 -0.000000 -1.869732
LeftHand -4.739588 -0.000000 -3.013884
LeftHandThumb1 -26.253704 0.000000 33.147579
RightShoulder -12.448034 -1.238898 -8.180178
RightArm 0.694027 45.549293 13.178927
RightForeArm -34.118290 0.000000 6.604718
RightHand -2.756261 -0.000000 5.754741
RightHandThumb1 -24.326973 -0.000000 -32.862282
LeftUpLeg -1.180028 12.198653 3.383900
LeftLeg -5.976477 -0.000000 0.000000
LeftFoot -19.221910 28.256306 -11.773446
LeftToeBase 27.732331 -0.000000 -0.000000
RightUpLeg -2.591250 -9.020885 0.313293
RightLeg -2.012646 -0.000000 0.000000
RightFoot -20.054232 -21.378673 16.056817
RightToeBase 25.580027 -0.000000 -0.000000
1767
root 19.585653 35.508746 -20.209979 -172.162096 -0.089804 181.937678
Spine -19.456293 0.505765 0.203019
Head 9.822145 -0.505275 2.689436
LeftShoulder -13.283492 -33.150002 19.844141
LeftArm -1.054687 -1.154993 -7.273600
LeftForeArm 10.511883 -0.000000 -1.925017
LeftHand -4.688213 -0.000000 -2.839756
LeftHandThumb1 -26.253704 0.000000 33.147579
RightShoulder -12.404510 -1.249469 -8.210689
RightArm 0.881604 45.471013 13.214863
RightForeArm -34.071202 -0.000000 6.593935
RightHand -2.883774 -0.000000 5.752623
RightHandThumb1 -24.326973 -0.000000 -32.862282
LeftUpLeg -1.179100 12.213201 3.367135
LeftLeg -5.973251 -0.000000 0.000000
LeftFoot -19.210944 28.240563 -11.753912
LeftToeBase 27.704601 -0.000000 -0.000000
RightUpLeg -2.583458 -9.046472 0.297121
RightLeg -2.016630 -0.000000 0.000000
RightFoot -20.039099 -21.368371 16.048470
RightToeBase 25.636120 -0.000000 -0.000000
1768
root 19.579574 35.509384 -20.203326 -172.176780 -0.097357 181.929962
Spine -19.410363 0.460215 0.235154
Head 9.763615 -0.458059 2.667267
LeftShoulder -13.253026 -33.124524 19.826737
LeftArm -0.970235 -1.043016 -7.353085
LeftForeArm 10.426663 0.000000 -1.966804
LeftHand -4.746598 -0.000000 -2.790634
LeftHandThumb1 -26.253704 0.000000 33.147579
RightShoulder -12.340919 -1.262644 -8.226753
RightArm 1.032344 45.389336 13.210780
RightForeArm -34.109049 -0.000000 6.567011
RightHand -2.842325 0.000000 5.778147
RightHandThumb1 -24.326973 -0.000000 -32.862282
LeftUpLeg -1.179724 12.215523 3.351290
LeftLeg -5.968228 -0.000000 0.000000
LeftFoot -19.194521 28.227573 -11.734563
LeftToeBase 27.715948 -0.000000 -0.000000
RightUpLeg -2.578144 -9.072897 0.281829
RightLeg -2.019391 -0.000000 0.000000
RightFoot -20.014641 -21.361973 16.028096
RightToeBase 25.832676 -0.000000 -0.000000
1769
root 19.572693 35.510049 -20.196492 -172.185245 -0.101777 181.918128
Spine -19.371290 0.435508 0.255035
Head 9.719485 -0.403307 2.660943
LeftShoulder -13.207752 -33.101311 19.803804
LeftArm -0.896474 -1.063163 -7.427312
LeftForeArm 10.555019 0.000000 -1.970318
LeftHand -4.737757 0.000000 -2.859414
LeftHandThumb1 -26.253704 0.000000 33.147579
RightShoulder -12.313651 -1.283753 -8.230917
RightArm 1.231475 45.324329 13.226548
RightForeArm -34.194536 -0.000000 6.533321
RightHand -2.865655 -0.000000 5.751369
RightHandThumb1 -24.326973 -0.000000 -32.862282
LeftUpLeg -1.187130 12.224193 3.327862
LeftLeg -5.961879 -0.000000 0.000000
LeftFoot -19.184634 28.203809 -11.740420
LeftToeBase 27.699980 -0.000000 -0.000000
RightUpLeg -2.577633 -9.070469 0.257995
RightLeg -2.020807 -0.000000 0.000000
RightFoot -20.013799 -21.378827 16.031351
RightToeBase 25.662193 -0.000000 -0.000000
1770
root 19.565847 35.510856 -20.190263 -172.192513 -0.117165 181.905289
Spine -19.339601 0.403980 0.277345
Head 9.685136 -0.376966 2.635297
LeftShoulder -13.146622 -33.095501 19.745947
LeftArm -0.808285 -1.047885 -7.457802
LeftForeArm 10.683325 0.000000 -1.996335
LeftHand -4.687138 -0.000000 -3.116206
LeftHandThumb1 -26.253704 0.000000 33.147579
RightShoulder -12.284595 -1.296470 -8.243986
RightArm 1.402702 45.260734 13.231565
RightForeArm -34.202790 -0.000000 6.501156
RightHand -2.833922 -0.000000 5.706288
RightHandThumb1 -24.326973 -0.000000 -32.862282
LeftUpLeg -1.204016 12.256341 3.302501
LeftLeg -5.941193 -0.000000 0.000000
LeftFoot -19.189196 28.146217 -11.739469
LeftToeBase 27.733629 -0.000000 -0.000000
RightUpLeg -2.577784 -9.097576 0.237142
RightLeg -2.024336 -0.000000 0.000000
RightFoot -20.005649 -21.377100 16.039081
RightToeBase 25.626280 -0.000000 -0.000000
1771
root 19.559331 35.511358 -20.184066 -172.196223 -0.136124 181.904470
Spine -19.312972 0.382245 0.308568
Head 9.654318 -0.359867 2.622652
LeftShoulder -13.094606 -33.061264 19.702946
LeftArm -0.722881 -1.001120 -7.527572
LeftForeArm 10.767451 -0.000000 -2.001764
LeftHand -4.713473 0.000000 -2.985304
LeftHandThumb1 -26.253704 0.000000 33.147579
RightShoulder -12.276978 -1.340086 -8.238164
RightArm 1.605802 45.257724 13.237170
RightForeArm -34.305287 -0.000000 6.474161
RightHand -2.851446 -0.000000 5.755121
RightHandThumb1 -24.326973 -0.000000 -32.862282
LeftUpLeg -1.217493 12.269002 3.289607
LeftLeg -5.938582 -0.000000 0.000000
LeftFoot -19.175470 28.123588 -11.712495
LeftToeBase 27.744241 -0.000000 -0.000000
RightUpLeg -2.583761 -9.118428 0.229818
RightLeg -2.024532 -0.000000 0.000000
RightFoot -19.978251 -21.337438 16.135882
RightToeBase 25.445057 -0.000000 -0.000000
1772
root 19.550705 35.511617 -20.178007 -172.201098 -0.154123 181.884294
Spine -19.283507 0.340969 0.326347
Head 9.626687 -0.318247 2.605122
LeftShoulder -13.069364 -33.006402 19.681150
LeftArm -0.620731 -0.986223 -7.621796
LeftForeArm 10.787248 0.000000 -2.013347
LeftHand -4.687966 -0.000000 -3.125432
LeftHandThumb1 -26.253704 0.000000 33.147579
RightShoulder -12.230292 -1.331344 -8.266739
RightArm 1.751755 45.166634 13.240544
RightForeArm -34.320555 -0.000000 6.437879
RightHand -2.866128 -0.000000 5.603319
RightHandThumb1 -24.326973 -0.000000 -32.862282
LeftUpLeg -1.229917 12.264233 3.256990
LeftLeg -5.928762 -0.000000 0.000000
LeftFoot -19.164345 28.092191 -11.692406
LeftToeBase 27.765672 -0.000000 -0.000000
RightUpLeg -2.583219 -9.138901 0.199125
RightLeg -2.029853 -0.000000 0.000000
RightFoot -19.977631 -21.376770 16.064664
RightToeBase 25.609856 -0.000000 -0.000000
1773
root 19.543032 35.511975 -20.172678 -172.204756 -0.174003 181.871010
Spine -19.260384 0.330758 0.337777
Head 9.609631 -0.318464 2.593678
LeftShoulder -13.031747 -33.045660 19.670901
LeftArm -0.511978 -0.779717 -7.734991
LeftForeArm 10.579477 -0.000000 -2.031205
LeftHand -4.727180 -0.000000 -3.026461
LeftHandThumb1 -26.253704 0.000000 33.147579
RightShoulder -12.185509 -1.282511 -8.312980
RightArm 1.797680 45.068622 13.201399
RightForeArm -34.320238 -0.000000 6.445184
RightHand -2.850479 -0.000000 5.631274
RightHandThumb1 -24.326973 -0.000000 -32.862282
LeftUpLeg -1.241683 12.244851 3.232892
LeftLeg -5.920573 -0.000000 0.000000
LeftFoot -19.158142 28.077443 -11.690560
LeftToeBase 27.769088 -0.000000 -0.000000
RightUpLeg -2.582925 -9.161887 0.177101
RightLeg -2.037910 -0.000000 0.000000
RightFoot -19.978887 -21.392622 16.062981
RightToeBase 25.651584 -0.000000 -0.000000
1774
root 19.536367 35.511479 -20.166863 -172.206961 -0.207558 181.867460
Spine -19.240619 0.298445 0.370734
Head 9.602434 -0.301558 2.569215
LeftShoulder -12.978932 -33.035572 19.631929
LeftArm -0.444235 -0.720602 -7.813081
LeftForeArm 10.624267 -0.000000 -1.988497
LeftHand -4.780299 -0.000000 -3.025946
LeftHandThumb1 -26.253704 0.000000 33.147579
RightShoulder -12.157653 -1.300436 -8.341636
RightArm 1.936936 45.120514 13.210098
RightForeArm -34.390972 -0.000000 6.433841
RightHand -2.868008 -0.000000 5.585488
RightHandThumb1 -24.326973 -0.000000 -32.862282
LeftUpLeg -1.236918 12.175097 3.225107
LeftLeg -5.950915 -0.000000 0.000000
LeftFoot -19.131004 28.106715 -11.669424
LeftToeBase 27.732131 -0.000000 -0.000000
RightUpLeg -2.586525 -9.197624 0.167648
RightLeg -2.037931 -0.000000 0.000000
RightFoot -19.982029 -21.395056 16.060075
RightToeBase 25.651523 -0.000000 -0.000000
1775
root 19.529030 35.511389 -20.162107 -172.214035 -0.225670 181.855474
Spine -19.211671 0.269533 0.389851
Head 9.586130 -0.283387 2.562520
LeftShoulder -12.954731 -33.038930 19.604784
LeftArm -0.343741 -0.623993 -7.880680
LeftForeArm 10.609740 -0.000000 -2.004632
LeftHand -4.717627 -0.000000 -3.056439
LeftHandThumb1 -26.253704 0.000000 33.147579
RightShoulder -12.133984 -1.283948 -8.371585
RightArm 2.075631 45.135642 13.221014
RightForeArm -34.399018 -0.000000 6.431287
RightHand -2.884040 -0.000000 5.570929
RightHandThumb1 -24.326973 -0.000000 -32.862282
LeftUpLeg -1.239800 12.157346 3.206268
LeftLeg -5.950001 -0.000000 0.000000
LeftFoot -19.124791 28.085606 -11.660977
LeftToeBase 27.744367 -0.000000 -0.000000
RightUpLeg -2.583663 -9.223417 0.149367
RightLeg -2.044926 -0.000000 0.000000
RightFoot -19.981607 -21.402853 16.069766
RightToeBase 25.666552 -0.000000 -0.000000
1776
root 19.522319 35.511525 -20.158113 -172.217739 -0.231920 181.838736
Spine -19.197174 0.275386 0.386614
Head 9.585724 -0.308602 2.556411
LeftShoulder -12.880920 -33.032914 19.554115
LeftArm -0.262297 -0.598163 -7.940013
LeftForeArm 10.726127 -0.000000 -1.990149
LeftHand -4.729254 -0.000000 -3.052028
LeftHandThumb1 -26.253704 0.000000 33.147579
RightShoulder -12.105787 -1.257331 -8.395895
RightArm 2.152443 45.165314 13.198669
RightForeArm -34.408710 -0.000000 6.399740
RightHand -2.829612 -0.000000 5.500301
RightHandThumb1 -24.326973 -0.000000 -32.862282
LeftUpLeg -1.257235 12.203616 3.174355
LeftLeg -5.929113 -0.000000 0.000000
LeftFoot -19.128256 28.038229 -11.655739
LeftToeBase 27.763610 -0.000000 -0.000000
RightUpLeg -2.589407 -9.196779 0.118200
RightLeg -2.036109 -0.000000 0.000000
RightFoot -19.989955 -21.424236 16.072413
RightToeBase 25.679533 -0.000000 -0.000000
